<svg xmlns="http://www.w3.org/2000/svg" viewBox="0 0 1600 1000" role="img" aria-labelledby="title desc">
  <title id="title">Gebrauchtwagen-Kaufagent</title>
  <desc id="desc">Inserate, Dokumente und technische Prüfung werden verglichen.</desc>
  <rect width="1600" height="1000" fill="#101820"/>
  <text x="130" y="135" fill="#f8fafc" font-family="system-ui, sans-serif" font-size="52" font-weight="850">Kaufentscheidung vorbereiten</text>
  <g transform="translate(150 230)">
    <rect width="360" height="440" rx="24" fill="#f7f3ea"/>
    <path d="M55 130c45-75 110-110 195-110s150 35 195 110" transform="scale(.65) translate(70 110)" fill="#172536"/>
    <circle cx="110" cy="230" r="40" fill="#07111e"/><circle cx="245" cy="230" r="40" fill="#07111e"/>
    <path d="M55 320h250M55 365h180" stroke="#2f6bff" stroke-width="16" stroke-linecap="round"/>
  </g>
  <g transform="translate(620 190)">
    <rect width="360" height="520" rx="24" fill="#132236" stroke="#526070" stroke-width="6"/>
    <text x="48" y="90" fill="#f8fafc" font-family="system-ui, sans-serif" font-size="36" font-weight="850">Prüffragen</text>
    <g stroke="#25d366" stroke-width="14" stroke-linecap="round"><path d="M58 170h240"/><path d="M58 245h180"/><path d="M58 320h260"/></g>
    <g fill="#f59e0b"><circle cx="305" cy="245" r="18"/><circle cx="345" cy="320" r="18"/></g>
    <rect x="58" y="410" width="210" height="62" rx="31" fill="#25d366"/>
  </g>
  <g transform="translate(1090 245)">
    <rect width="360" height="420" rx="24" fill="#f7f3ea"/>
    <text x="50" y="90" fill="#101820" font-family="system-ui, sans-serif" font-size="36" font-weight="850">Technikcheck</text>
    <path d="M70 170h220M70 235h260M70 300h190" stroke="#101820" stroke-width="14" stroke-linecap="round"/>
    <circle cx="285" cy="310" r="44" fill="#25d366"/>
    <path d="M265 310l18 18 36-46" stroke="#07111e" stroke-width="12" fill="none" stroke-linecap="round"/>
  </g>
  <path d="M520 445h78M990 445h78" stroke="#25d366" stroke-width="14" stroke-linecap="round"/>
  <text x="135" y="835" fill="#aeb8c7" font-family="system-ui, sans-serif" font-size="32">Inserat prüfen · Verkäufer fragen · unabhängige Prüfung koordinieren</text>
</svg>
